<mxfile host="app.diagrams.net" modified="2023-08-03T03:10:03.828Z" agent="Mozilla/5.0 (Windows NT 10.0; Win64; x64) AppleWebKit/537.36 (KHTML, like Gecko) Chrome/115.0.0.0 Safari/537.36" etag="7yohFuiCfB0Rjm--lXfU" version="21.6.6" type="device">
  <diagram name="Side-1" id="asbrtX3vUWshWSL-09yU">
    <mxGraphModel dx="1744" dy="493" grid="1" gridSize="10" guides="1" tooltips="1" connect="1" arrows="1" fold="1" page="1" pageScale="1" pageWidth="827" pageHeight="1169" math="0" shadow="0">
      <root>
        <mxCell id="0" />
        <mxCell id="1" parent="0" />
        <mxCell id="DuEQcR9Yl5gFV2DU3CKV-1" value="Core" style="shape=module;align=left;spacingLeft=20;align=center;verticalAlign=top;whiteSpace=wrap;html=1;" vertex="1" parent="1">
          <mxGeometry x="-210" y="80" width="130" height="50" as="geometry" />
        </mxCell>
        <mxCell id="DuEQcR9Yl5gFV2DU3CKV-3" value="Common" style="shape=module;align=left;spacingLeft=20;align=center;verticalAlign=top;whiteSpace=wrap;html=1;" vertex="1" parent="1">
          <mxGeometry x="-60.1" y="80" width="130" height="50" as="geometry" />
        </mxCell>
        <mxCell id="DuEQcR9Yl5gFV2DU3CKV-4" value="Collision" style="shape=module;align=left;spacingLeft=20;align=center;verticalAlign=top;whiteSpace=wrap;html=1;" vertex="1" parent="1">
          <mxGeometry x="69.9" y="80" width="100.1" height="50" as="geometry" />
        </mxCell>
        <mxCell id="DuEQcR9Yl5gFV2DU3CKV-5" value="Asteroid" style="shape=module;align=left;spacingLeft=20;align=center;verticalAlign=top;whiteSpace=wrap;html=1;" vertex="1" parent="1">
          <mxGeometry x="170" y="80" width="100" height="50" as="geometry" />
        </mxCell>
        <mxCell id="DuEQcR9Yl5gFV2DU3CKV-6" value="" style="endArrow=none;dashed=1;html=1;rounded=0;entryX=0.5;entryY=1;entryDx=0;entryDy=0;" edge="1" parent="1" source="DuEQcR9Yl5gFV2DU3CKV-78" target="DuEQcR9Yl5gFV2DU3CKV-1">
          <mxGeometry width="50" height="50" relative="1" as="geometry">
            <mxPoint x="-140" y="1000" as="sourcePoint" />
            <mxPoint x="-110" y="240" as="targetPoint" />
          </mxGeometry>
        </mxCell>
        <mxCell id="DuEQcR9Yl5gFV2DU3CKV-7" value="" style="endArrow=none;dashed=1;html=1;rounded=0;entryX=0.5;entryY=1;entryDx=0;entryDy=0;" edge="1" parent="1" source="DuEQcR9Yl5gFV2DU3CKV-16" target="DuEQcR9Yl5gFV2DU3CKV-3">
          <mxGeometry width="50" height="50" relative="1" as="geometry">
            <mxPoint x="9.9" y="1000" as="sourcePoint" />
            <mxPoint x="9.9" y="130" as="targetPoint" />
          </mxGeometry>
        </mxCell>
        <mxCell id="DuEQcR9Yl5gFV2DU3CKV-8" value="" style="endArrow=none;dashed=1;html=1;rounded=0;entryX=0.5;entryY=1;entryDx=0;entryDy=0;exitX=0.5;exitY=0;exitDx=0;exitDy=0;" edge="1" parent="1" source="DuEQcR9Yl5gFV2DU3CKV-44" target="DuEQcR9Yl5gFV2DU3CKV-4">
          <mxGeometry width="50" height="50" relative="1" as="geometry">
            <mxPoint x="134.9" y="310" as="sourcePoint" />
            <mxPoint x="139.9" y="130" as="targetPoint" />
          </mxGeometry>
        </mxCell>
        <mxCell id="DuEQcR9Yl5gFV2DU3CKV-10" value="Splitterator" style="shape=module;align=left;spacingLeft=20;align=center;verticalAlign=top;whiteSpace=wrap;html=1;" vertex="1" parent="1">
          <mxGeometry x="270" y="80" width="100.1" height="50" as="geometry" />
        </mxCell>
        <mxCell id="DuEQcR9Yl5gFV2DU3CKV-11" value="" style="endArrow=none;dashed=1;html=1;rounded=0;entryX=0.5;entryY=1;entryDx=0;entryDy=0;" edge="1" parent="1" source="DuEQcR9Yl5gFV2DU3CKV-76" target="DuEQcR9Yl5gFV2DU3CKV-10">
          <mxGeometry width="50" height="50" relative="1" as="geometry">
            <mxPoint x="404.9" y="1000" as="sourcePoint" />
            <mxPoint x="399.9" y="130" as="targetPoint" />
          </mxGeometry>
        </mxCell>
        <mxCell id="DuEQcR9Yl5gFV2DU3CKV-13" value="" style="endArrow=none;dashed=1;html=1;rounded=0;entryX=0.5;entryY=1;entryDx=0;entryDy=0;" edge="1" parent="1" source="DuEQcR9Yl5gFV2DU3CKV-21">
          <mxGeometry width="50" height="50" relative="1" as="geometry">
            <mxPoint x="-140" y="1119.5" as="sourcePoint" />
            <mxPoint x="-145" y="319.5" as="targetPoint" />
          </mxGeometry>
        </mxCell>
        <mxCell id="DuEQcR9Yl5gFV2DU3CKV-15" value="" style="endArrow=classic;html=1;rounded=0;exitX=1;exitY=0.75;exitDx=0;exitDy=0;entryX=0;entryY=0.25;entryDx=0;entryDy=0;" edge="1" parent="1" source="DuEQcR9Yl5gFV2DU3CKV-78" target="DuEQcR9Yl5gFV2DU3CKV-16">
          <mxGeometry width="50" height="50" relative="1" as="geometry">
            <mxPoint x="-135" y="282" as="sourcePoint" />
            <mxPoint x="-10" y="287.5" as="targetPoint" />
          </mxGeometry>
        </mxCell>
        <mxCell id="DuEQcR9Yl5gFV2DU3CKV-18" value="Locate Service Providers" style="edgeLabel;html=1;align=center;verticalAlign=middle;resizable=0;points=[];" vertex="1" connectable="0" parent="DuEQcR9Yl5gFV2DU3CKV-15">
          <mxGeometry x="-0.1573" y="2" relative="1" as="geometry">
            <mxPoint x="10" y="-8" as="offset" />
          </mxGeometry>
        </mxCell>
        <mxCell id="DuEQcR9Yl5gFV2DU3CKV-17" value="" style="endArrow=none;dashed=1;html=1;rounded=0;entryX=0.5;entryY=1;entryDx=0;entryDy=0;" edge="1" parent="1" source="DuEQcR9Yl5gFV2DU3CKV-42" target="DuEQcR9Yl5gFV2DU3CKV-16">
          <mxGeometry width="50" height="50" relative="1" as="geometry">
            <mxPoint x="9.9" y="1119.5" as="sourcePoint" />
            <mxPoint x="4.9" y="249.5" as="targetPoint" />
          </mxGeometry>
        </mxCell>
        <mxCell id="DuEQcR9Yl5gFV2DU3CKV-16" value="" style="rounded=0;whiteSpace=wrap;html=1;" vertex="1" parent="1">
          <mxGeometry x="-5.1" y="260" width="20" height="70" as="geometry" />
        </mxCell>
        <mxCell id="DuEQcR9Yl5gFV2DU3CKV-24" value="" style="endArrow=none;dashed=1;html=1;rounded=0;entryX=0.5;entryY=1;entryDx=0;entryDy=0;" edge="1" parent="1" source="DuEQcR9Yl5gFV2DU3CKV-44">
          <mxGeometry width="50" height="50" relative="1" as="geometry">
            <mxPoint x="119.95" y="1137.08" as="sourcePoint" />
            <mxPoint x="119.95" y="443.08" as="targetPoint" />
          </mxGeometry>
        </mxCell>
        <mxCell id="DuEQcR9Yl5gFV2DU3CKV-25" value="" style="rounded=0;whiteSpace=wrap;html=1;" vertex="1" parent="1">
          <mxGeometry x="209.99999999999997" y="320" width="20" height="70.5" as="geometry" />
        </mxCell>
        <mxCell id="DuEQcR9Yl5gFV2DU3CKV-28" value="" style="endArrow=none;dashed=1;html=1;rounded=0;entryX=0.5;entryY=1;entryDx=0;entryDy=0;exitX=0.5;exitY=0;exitDx=0;exitDy=0;" edge="1" parent="1" source="DuEQcR9Yl5gFV2DU3CKV-25" target="DuEQcR9Yl5gFV2DU3CKV-5">
          <mxGeometry width="50" height="50" relative="1" as="geometry">
            <mxPoint x="114.9" y="260" as="sourcePoint" />
            <mxPoint x="114.9" y="140" as="targetPoint" />
          </mxGeometry>
        </mxCell>
        <mxCell id="DuEQcR9Yl5gFV2DU3CKV-29" value="" style="endArrow=none;dashed=1;html=1;rounded=0;entryX=0.5;entryY=1;entryDx=0;entryDy=0;" edge="1" parent="1" target="DuEQcR9Yl5gFV2DU3CKV-25">
          <mxGeometry width="50" height="50" relative="1" as="geometry">
            <mxPoint x="219.99999999999997" y="997.5" as="sourcePoint" />
            <mxPoint x="219.75999999999996" y="249.5" as="targetPoint" />
          </mxGeometry>
        </mxCell>
        <mxCell id="DuEQcR9Yl5gFV2DU3CKV-30" value="" style="endArrow=classic;html=1;rounded=0;exitX=0;exitY=0.75;exitDx=0;exitDy=0;entryX=1;entryY=0.25;entryDx=0;entryDy=0;" edge="1" parent="1" source="DuEQcR9Yl5gFV2DU3CKV-16" target="DuEQcR9Yl5gFV2DU3CKV-21">
          <mxGeometry width="50" height="50" relative="1" as="geometry">
            <mxPoint x="-50" y="379.5" as="sourcePoint" />
            <mxPoint x="-135" y="307" as="targetPoint" />
          </mxGeometry>
        </mxCell>
        <mxCell id="DuEQcR9Yl5gFV2DU3CKV-31" value="Providers" style="edgeLabel;html=1;align=center;verticalAlign=middle;resizable=0;points=[];" vertex="1" connectable="0" parent="DuEQcR9Yl5gFV2DU3CKV-30">
          <mxGeometry x="-0.1573" y="2" relative="1" as="geometry">
            <mxPoint x="-16" y="-14" as="offset" />
          </mxGeometry>
        </mxCell>
        <mxCell id="DuEQcR9Yl5gFV2DU3CKV-32" value="" style="endArrow=none;dashed=1;html=1;rounded=0;entryX=0.5;entryY=1;entryDx=0;entryDy=0;" edge="1" parent="1" source="DuEQcR9Yl5gFV2DU3CKV-36" target="DuEQcR9Yl5gFV2DU3CKV-21">
          <mxGeometry width="50" height="50" relative="1" as="geometry">
            <mxPoint x="-140" y="1119.5" as="sourcePoint" />
            <mxPoint x="-145" y="319.5" as="targetPoint" />
          </mxGeometry>
        </mxCell>
        <mxCell id="DuEQcR9Yl5gFV2DU3CKV-21" value="" style="rounded=0;whiteSpace=wrap;html=1;" vertex="1" parent="1">
          <mxGeometry x="-155" y="300" width="20" height="49.5" as="geometry" />
        </mxCell>
        <mxCell id="DuEQcR9Yl5gFV2DU3CKV-33" value="" style="endArrow=classic;html=1;rounded=0;exitX=1;exitY=0.75;exitDx=0;exitDy=0;entryX=0;entryY=0.25;entryDx=0;entryDy=0;" edge="1" parent="1" source="DuEQcR9Yl5gFV2DU3CKV-21" target="DuEQcR9Yl5gFV2DU3CKV-25">
          <mxGeometry width="50" height="50" relative="1" as="geometry">
            <mxPoint x="-100" y="349.5" as="sourcePoint" />
            <mxPoint x="310" y="339.5" as="targetPoint" />
          </mxGeometry>
        </mxCell>
        <mxCell id="DuEQcR9Yl5gFV2DU3CKV-34" value="Main processing pass" style="edgeLabel;html=1;align=center;verticalAlign=middle;resizable=0;points=[];" vertex="1" connectable="0" parent="DuEQcR9Yl5gFV2DU3CKV-33">
          <mxGeometry x="-0.1573" y="2" relative="1" as="geometry">
            <mxPoint x="-80" y="-11" as="offset" />
          </mxGeometry>
        </mxCell>
        <mxCell id="DuEQcR9Yl5gFV2DU3CKV-37" value="" style="endArrow=none;dashed=1;html=1;rounded=0;entryX=0.5;entryY=1;entryDx=0;entryDy=0;" edge="1" parent="1" source="DuEQcR9Yl5gFV2DU3CKV-53">
          <mxGeometry width="50" height="50" relative="1" as="geometry">
            <mxPoint x="-140" y="1129.5" as="sourcePoint" />
            <mxPoint x="-145" y="420" as="targetPoint" />
          </mxGeometry>
        </mxCell>
        <mxCell id="DuEQcR9Yl5gFV2DU3CKV-36" value="" style="rounded=0;whiteSpace=wrap;html=1;" vertex="1" parent="1">
          <mxGeometry x="-155" y="359.5" width="20" height="60.5" as="geometry" />
        </mxCell>
        <mxCell id="DuEQcR9Yl5gFV2DU3CKV-38" value="" style="endArrow=classic;html=1;rounded=0;exitX=0;exitY=0.75;exitDx=0;exitDy=0;entryX=1;entryY=0.25;entryDx=0;entryDy=0;" edge="1" parent="1" source="DuEQcR9Yl5gFV2DU3CKV-25" target="DuEQcR9Yl5gFV2DU3CKV-36">
          <mxGeometry width="50" height="50" relative="1" as="geometry">
            <mxPoint x="15" y="317.5" as="sourcePoint" />
            <mxPoint x="-125" y="317.5" as="targetPoint" />
          </mxGeometry>
        </mxCell>
        <mxCell id="DuEQcR9Yl5gFV2DU3CKV-40" value="" style="endArrow=classic;html=1;rounded=0;exitX=1;exitY=0.75;exitDx=0;exitDy=0;entryX=0;entryY=0.25;entryDx=0;entryDy=0;" edge="1" parent="1" source="DuEQcR9Yl5gFV2DU3CKV-36" target="DuEQcR9Yl5gFV2DU3CKV-42">
          <mxGeometry width="50" height="50" relative="1" as="geometry">
            <mxPoint x="-80" y="429.5" as="sourcePoint" />
            <mxPoint x="165" y="388" as="targetPoint" />
          </mxGeometry>
        </mxCell>
        <mxCell id="DuEQcR9Yl5gFV2DU3CKV-41" value="Locate Service Providers" style="edgeLabel;html=1;align=center;verticalAlign=middle;resizable=0;points=[];" vertex="1" connectable="0" parent="DuEQcR9Yl5gFV2DU3CKV-40">
          <mxGeometry x="-0.1573" y="2" relative="1" as="geometry">
            <mxPoint x="10" y="-10" as="offset" />
          </mxGeometry>
        </mxCell>
        <mxCell id="DuEQcR9Yl5gFV2DU3CKV-43" value="" style="endArrow=none;dashed=1;html=1;rounded=0;entryX=0.5;entryY=1;entryDx=0;entryDy=0;" edge="1" parent="1" target="DuEQcR9Yl5gFV2DU3CKV-42">
          <mxGeometry width="50" height="50" relative="1" as="geometry">
            <mxPoint x="9.9" y="1000" as="sourcePoint" />
            <mxPoint x="4.9" y="200" as="targetPoint" />
          </mxGeometry>
        </mxCell>
        <mxCell id="DuEQcR9Yl5gFV2DU3CKV-42" value="" style="rounded=0;whiteSpace=wrap;html=1;" vertex="1" parent="1">
          <mxGeometry x="-5.1" y="390" width="20" height="63.5" as="geometry" />
        </mxCell>
        <mxCell id="DuEQcR9Yl5gFV2DU3CKV-45" value="" style="endArrow=none;dashed=1;html=1;rounded=0;entryX=0.5;entryY=1;entryDx=0;entryDy=0;" edge="1" parent="1" target="DuEQcR9Yl5gFV2DU3CKV-44">
          <mxGeometry width="50" height="50" relative="1" as="geometry">
            <mxPoint x="119.95" y="1000" as="sourcePoint" />
            <mxPoint x="119.95" y="306" as="targetPoint" />
          </mxGeometry>
        </mxCell>
        <mxCell id="DuEQcR9Yl5gFV2DU3CKV-44" value="" style="rounded=0;whiteSpace=wrap;html=1;" vertex="1" parent="1">
          <mxGeometry x="109.95" y="447" width="20" height="70" as="geometry" />
        </mxCell>
        <mxCell id="DuEQcR9Yl5gFV2DU3CKV-48" value="" style="rounded=0;whiteSpace=wrap;html=1;" vertex="1" parent="1">
          <mxGeometry x="-155" y="425.08" width="20" height="54.92" as="geometry" />
        </mxCell>
        <mxCell id="DuEQcR9Yl5gFV2DU3CKV-49" value="" style="endArrow=classic;html=1;rounded=0;exitX=0;exitY=0.75;exitDx=0;exitDy=0;entryX=1;entryY=0.25;entryDx=0;entryDy=0;" edge="1" parent="1" source="DuEQcR9Yl5gFV2DU3CKV-42" target="DuEQcR9Yl5gFV2DU3CKV-48">
          <mxGeometry width="50" height="50" relative="1" as="geometry">
            <mxPoint x="5" y="437.125" as="sourcePoint" />
            <mxPoint x="-125" y="335.08" as="targetPoint" />
          </mxGeometry>
        </mxCell>
        <mxCell id="DuEQcR9Yl5gFV2DU3CKV-50" value="Providers" style="edgeLabel;html=1;align=center;verticalAlign=middle;resizable=0;points=[];" vertex="1" connectable="0" parent="DuEQcR9Yl5gFV2DU3CKV-49">
          <mxGeometry x="-0.1573" y="2" relative="1" as="geometry">
            <mxPoint x="-26" y="-14" as="offset" />
          </mxGeometry>
        </mxCell>
        <mxCell id="DuEQcR9Yl5gFV2DU3CKV-51" value="" style="endArrow=classic;html=1;rounded=0;exitX=1;exitY=0.75;exitDx=0;exitDy=0;entryX=0;entryY=0.25;entryDx=0;entryDy=0;" edge="1" parent="1" source="DuEQcR9Yl5gFV2DU3CKV-48" target="DuEQcR9Yl5gFV2DU3CKV-44">
          <mxGeometry width="50" height="50" relative="1" as="geometry">
            <mxPoint x="-115" y="477.08" as="sourcePoint" />
            <mxPoint x="140" y="457.08" as="targetPoint" />
          </mxGeometry>
        </mxCell>
        <mxCell id="DuEQcR9Yl5gFV2DU3CKV-52" value="Post processing pass" style="edgeLabel;html=1;align=center;verticalAlign=middle;resizable=0;points=[];" vertex="1" connectable="0" parent="DuEQcR9Yl5gFV2DU3CKV-51">
          <mxGeometry x="-0.1573" y="2" relative="1" as="geometry">
            <mxPoint x="-38" y="-10" as="offset" />
          </mxGeometry>
        </mxCell>
        <mxCell id="DuEQcR9Yl5gFV2DU3CKV-54" value="" style="endArrow=none;dashed=1;html=1;rounded=0;entryX=0.5;entryY=1;entryDx=0;entryDy=0;" edge="1" parent="1" target="DuEQcR9Yl5gFV2DU3CKV-53">
          <mxGeometry width="50" height="50" relative="1" as="geometry">
            <mxPoint x="-140" y="1000" as="sourcePoint" />
            <mxPoint x="-145" y="280" as="targetPoint" />
          </mxGeometry>
        </mxCell>
        <mxCell id="DuEQcR9Yl5gFV2DU3CKV-53" value="" style="rounded=0;whiteSpace=wrap;html=1;" vertex="1" parent="1">
          <mxGeometry x="-155" y="490" width="20" height="50" as="geometry" />
        </mxCell>
        <mxCell id="DuEQcR9Yl5gFV2DU3CKV-55" value="" style="endArrow=classic;html=1;rounded=0;exitX=0;exitY=0.75;exitDx=0;exitDy=0;entryX=1;entryY=0.25;entryDx=0;entryDy=0;" edge="1" parent="1" source="DuEQcR9Yl5gFV2DU3CKV-44" target="DuEQcR9Yl5gFV2DU3CKV-53">
          <mxGeometry width="50" height="50" relative="1" as="geometry">
            <mxPoint x="70" y="487.08" as="sourcePoint" />
            <mxPoint x="-70" y="488.08" as="targetPoint" />
          </mxGeometry>
        </mxCell>
        <mxCell id="DuEQcR9Yl5gFV2DU3CKV-66" value="" style="endArrow=none;dashed=1;html=1;rounded=0;entryX=0.5;entryY=1;entryDx=0;entryDy=0;" edge="1" source="DuEQcR9Yl5gFV2DU3CKV-73" parent="1">
          <mxGeometry width="50" height="50" relative="1" as="geometry">
            <mxPoint x="-140" y="1000" as="sourcePoint" />
            <mxPoint x="-145" y="200" as="targetPoint" />
          </mxGeometry>
        </mxCell>
        <mxCell id="DuEQcR9Yl5gFV2DU3CKV-68" value="" style="endArrow=classic;html=1;rounded=0;exitX=1;exitY=0.75;exitDx=0;exitDy=0;entryX=0;entryY=0.25;entryDx=0;entryDy=0;" edge="1" source="DuEQcR9Yl5gFV2DU3CKV-85" target="DuEQcR9Yl5gFV2DU3CKV-70" parent="1">
          <mxGeometry width="50" height="50" relative="1" as="geometry">
            <mxPoint x="-135" y="162.5" as="sourcePoint" />
            <mxPoint x="-10" y="168" as="targetPoint" />
          </mxGeometry>
        </mxCell>
        <mxCell id="DuEQcR9Yl5gFV2DU3CKV-70" value="" style="rounded=0;whiteSpace=wrap;html=1;" vertex="1" parent="1">
          <mxGeometry x="-5.1" y="148" width="20" height="60" as="geometry" />
        </mxCell>
        <mxCell id="DuEQcR9Yl5gFV2DU3CKV-71" value="" style="endArrow=classic;html=1;rounded=0;exitX=0;exitY=0.75;exitDx=0;exitDy=0;entryX=1;entryY=0.25;entryDx=0;entryDy=0;" edge="1" source="DuEQcR9Yl5gFV2DU3CKV-70" target="DuEQcR9Yl5gFV2DU3CKV-73" parent="1">
          <mxGeometry width="50" height="50" relative="1" as="geometry">
            <mxPoint x="-50" y="260" as="sourcePoint" />
            <mxPoint x="-135" y="187.5" as="targetPoint" />
          </mxGeometry>
        </mxCell>
        <mxCell id="DuEQcR9Yl5gFV2DU3CKV-72" value="Providers" style="edgeLabel;html=1;align=center;verticalAlign=middle;resizable=0;points=[];" vertex="1" connectable="0" parent="DuEQcR9Yl5gFV2DU3CKV-71">
          <mxGeometry x="-0.1573" y="2" relative="1" as="geometry">
            <mxPoint x="-16" y="-14" as="offset" />
          </mxGeometry>
        </mxCell>
        <mxCell id="DuEQcR9Yl5gFV2DU3CKV-73" value="" style="rounded=0;whiteSpace=wrap;html=1;" vertex="1" parent="1">
          <mxGeometry x="-155" y="180" width="20" height="50" as="geometry" />
        </mxCell>
        <mxCell id="DuEQcR9Yl5gFV2DU3CKV-74" value="" style="endArrow=classic;html=1;rounded=0;exitX=1;exitY=0.75;exitDx=0;exitDy=0;entryX=0;entryY=0.25;entryDx=0;entryDy=0;" edge="1" source="DuEQcR9Yl5gFV2DU3CKV-73" parent="1" target="DuEQcR9Yl5gFV2DU3CKV-76">
          <mxGeometry width="50" height="50" relative="1" as="geometry">
            <mxPoint x="-100" y="230" as="sourcePoint" />
            <mxPoint x="325" y="222.5" as="targetPoint" />
          </mxGeometry>
        </mxCell>
        <mxCell id="DuEQcR9Yl5gFV2DU3CKV-75" value="Pre processing pass" style="edgeLabel;html=1;align=center;verticalAlign=middle;resizable=0;points=[];" vertex="1" connectable="0" parent="DuEQcR9Yl5gFV2DU3CKV-74">
          <mxGeometry x="-0.1573" y="2" relative="1" as="geometry">
            <mxPoint x="-122" y="-10" as="offset" />
          </mxGeometry>
        </mxCell>
        <mxCell id="DuEQcR9Yl5gFV2DU3CKV-77" value="" style="endArrow=none;dashed=1;html=1;rounded=0;entryX=0.5;entryY=1;entryDx=0;entryDy=0;" edge="1" parent="1" target="DuEQcR9Yl5gFV2DU3CKV-76">
          <mxGeometry width="50" height="50" relative="1" as="geometry">
            <mxPoint x="320.04999999999995" y="1001" as="sourcePoint" />
            <mxPoint x="325.04999999999995" y="131" as="targetPoint" />
          </mxGeometry>
        </mxCell>
        <mxCell id="DuEQcR9Yl5gFV2DU3CKV-76" value="" style="rounded=0;whiteSpace=wrap;html=1;" vertex="1" parent="1">
          <mxGeometry x="310.04999999999995" y="208" width="20" height="60" as="geometry" />
        </mxCell>
        <mxCell id="DuEQcR9Yl5gFV2DU3CKV-82" value="" style="endArrow=none;dashed=1;html=1;rounded=0;entryX=0.5;entryY=1;entryDx=0;entryDy=0;" edge="1" parent="1" target="DuEQcR9Yl5gFV2DU3CKV-78">
          <mxGeometry width="50" height="50" relative="1" as="geometry">
            <mxPoint x="-145" y="269.5" as="sourcePoint" />
            <mxPoint x="-145" y="130" as="targetPoint" />
          </mxGeometry>
        </mxCell>
        <mxCell id="DuEQcR9Yl5gFV2DU3CKV-78" value="" style="rounded=0;whiteSpace=wrap;html=1;" vertex="1" parent="1">
          <mxGeometry x="-155" y="240" width="20" height="50" as="geometry" />
        </mxCell>
        <mxCell id="DuEQcR9Yl5gFV2DU3CKV-83" value="" style="endArrow=classic;html=1;rounded=0;exitX=0;exitY=0.75;exitDx=0;exitDy=0;entryX=1;entryY=0.25;entryDx=0;entryDy=0;" edge="1" parent="1" source="DuEQcR9Yl5gFV2DU3CKV-76" target="DuEQcR9Yl5gFV2DU3CKV-78">
          <mxGeometry width="50" height="50" relative="1" as="geometry">
            <mxPoint x="260" y="260" as="sourcePoint" />
            <mxPoint x="120" y="260" as="targetPoint" />
          </mxGeometry>
        </mxCell>
        <mxCell id="DuEQcR9Yl5gFV2DU3CKV-86" value="" style="endArrow=classic;html=1;rounded=0;exitX=1;exitY=0.25;exitDx=0;exitDy=0;entryX=0;entryY=0.25;entryDx=0;entryDy=0;" edge="1" parent="1" target="DuEQcR9Yl5gFV2DU3CKV-85">
          <mxGeometry width="50" height="50" relative="1" as="geometry">
            <mxPoint x="-135" y="162.5" as="sourcePoint" />
            <mxPoint x="5" y="163" as="targetPoint" />
          </mxGeometry>
        </mxCell>
        <mxCell id="DuEQcR9Yl5gFV2DU3CKV-87" value="Locate Service Providers" style="edgeLabel;html=1;align=center;verticalAlign=middle;resizable=0;points=[];" vertex="1" connectable="0" parent="DuEQcR9Yl5gFV2DU3CKV-86">
          <mxGeometry x="-0.1573" y="2" relative="1" as="geometry">
            <mxPoint x="75" y="-10" as="offset" />
          </mxGeometry>
        </mxCell>
        <mxCell id="DuEQcR9Yl5gFV2DU3CKV-85" value="" style="rounded=0;whiteSpace=wrap;html=1;" vertex="1" parent="1">
          <mxGeometry x="-155" y="141" width="20" height="30" as="geometry" />
        </mxCell>
        <mxCell id="DuEQcR9Yl5gFV2DU3CKV-88" value="" style="endArrow=none;dashed=1;html=1;rounded=0;entryX=0.5;entryY=1;entryDx=0;entryDy=0;exitX=0.5;exitY=0;exitDx=0;exitDy=0;" edge="1" parent="1" source="DuEQcR9Yl5gFV2DU3CKV-21" target="DuEQcR9Yl5gFV2DU3CKV-78">
          <mxGeometry width="50" height="50" relative="1" as="geometry">
            <mxPoint x="-135" y="370" as="sourcePoint" />
            <mxPoint x="-135" y="360" as="targetPoint" />
            <Array as="points" />
          </mxGeometry>
        </mxCell>
      </root>
    </mxGraphModel>
  </diagram>
</mxfile>
